HIERARCHY
ROOT Hips
{
  OFFSET 0.000 67.407 0.000
  CHANNELS 6 Xposition Yposition Zposition Zrotation Xrotation Yrotation
  JOINT LeftUpLeg
  {
    OFFSET 7.079 1.081 3.332
    CHANNELS 6 Xposition Yposition Zposition Zrotation Xrotation Yrotation
    JOINT LeftLeg
    {
      OFFSET 0.000 -35.918 0.000
      CHANNELS 6 Xposition Yposition Zposition Zrotation Xrotation Yrotation
      JOINT LeftFoot
      {
        OFFSET 0.000 -32.569 0.000
        CHANNELS 6 Xposition Yposition Zposition Zrotation Xrotation Yrotation
        End Site
        {
          OFFSET 0.000 0.000 9.769
        }
      }
    }
  }
  JOINT RightUpLeg
  {
    OFFSET -7.079 1.081 3.332
    CHANNELS 6 Xposition Yposition Zposition Zrotation Xrotation Yrotation
    JOINT RightLeg
    {
      OFFSET 0.000 -35.918 0.000
      CHANNELS 6 Xposition Yposition Zposition Zrotation Xrotation Yrotation
      JOINT RightFoot
      {
        OFFSET 0.000 -32.569 0.000
        CHANNELS 6 Xposition Yposition Zposition Zrotation Xrotation Yrotation
        End Site
        {
          OFFSET 0.000 0.000 9.769
        }
      }
    }
  }
  JOINT Spine
  {
    OFFSET 0.000 30.804 0.000
    CHANNELS 6 Xposition Yposition Zposition Zrotation Xrotation Yrotation
    JOINT Spine1
    {
      OFFSET 0.000 22.765 0.000
      CHANNELS 6 Xposition Yposition Zposition Zrotation Xrotation Yrotation
      JOINT LeftShoulder
      {
        OFFSET 1.661 -0.416 0.134
        CHANNELS 6 Xposition Yposition Zposition Zrotation Xrotation Yrotation
        JOINT LeftArm
        {
          OFFSET 15.436 0.000 0.000
          CHANNELS 6 Xposition Yposition Zposition Zrotation Xrotation Yrotation
          JOINT LeftForeArm
          {
            OFFSET 25.556 0.000 0.000
            CHANNELS 6 Xposition Yposition Zposition Zrotation Xrotation Yrotation
            JOINT LeftHand
            {
              OFFSET 22.496 0.000 0.000
              CHANNELS 6 Xposition Yposition Zposition Zrotation Xrotation Yrotation
              JOINT LeftHandThumb1
              {
                OFFSET 0.000 0.000 0.000
                CHANNELS 6 Xposition Yposition Zposition Zrotation Xrotation Yrotation
                JOINT LeftHandThumb2
                {
                  OFFSET 0.000 0.000 0.000
                  CHANNELS 6 Xposition Yposition Zposition Zrotation Xrotation Yrotation
                  JOINT LeftHandThumb3
                  {
                    OFFSET 0.000 0.000 0.000
                    CHANNELS 6 Xposition Yposition Zposition Zrotation Xrotation Yrotation
                    End Site
                    {
                      OFFSET 0.000 0.000 0.000
                    }
                  }
                }
              }
              JOINT LeftHandIndex1
              {
                OFFSET 0.000 0.000 0.000
                CHANNELS 6 Xposition Yposition Zposition Zrotation Xrotation Yrotation
                JOINT LeftHandIndex2
                {
                  OFFSET 0.000 0.000 0.000
                  CHANNELS 6 Xposition Yposition Zposition Zrotation Xrotation Yrotation
                  JOINT LeftHandIndex3
                  {
                    OFFSET 0.000 0.000 0.000
                    CHANNELS 6 Xposition Yposition Zposition Zrotation Xrotation Yrotation
                    End Site
                    {
                      OFFSET 0.000 0.000 0.000
                    }
                  }
                }
              }
              JOINT LeftHandMiddle1
              {
                OFFSET 0.000 0.000 0.000
                CHANNELS 6 Xposition Yposition Zposition Zrotation Xrotation Yrotation
                JOINT LeftHandMiddle2
                {
                  OFFSET 0.000 0.000 0.000
                  CHANNELS 6 Xposition Yposition Zposition Zrotation Xrotation Yrotation
                  JOINT LeftHandMiddle3
                  {
                    OFFSET 0.000 0.000 0.000
                    CHANNELS 6 Xposition Yposition Zposition Zrotation Xrotation Yrotation
                    End Site
                    {
                      OFFSET 0.000 0.000 0.000
                    }
                  }
                }
              }
              JOINT LeftHandRing1
              {
                OFFSET 0.000 0.000 0.000
                CHANNELS 6 Xposition Yposition Zposition Zrotation Xrotation Yrotation
                JOINT LeftHandRing2
                {
                  OFFSET 0.000 0.000 0.000
                  CHANNELS 6 Xposition Yposition Zposition Zrotation Xrotation Yrotation
                  JOINT LeftHandRing3
                  {
                    OFFSET 0.000 0.000 0.000
                    CHANNELS 6 Xposition Yposition Zposition Zrotation Xrotation Yrotation
                    End Site
                    {
                      OFFSET 0.000 0.000 0.000
                    }
                  }
                }
              }
              JOINT LeftHandPinky1
              {
                OFFSET 0.000 0.000 0.000
                CHANNELS 6 Xposition Yposition Zposition Zrotation Xrotation Yrotation
                JOINT LeftHandPinky2
                {
                  OFFSET 0.000 0.000 0.000
                  CHANNELS 6 Xposition Yposition Zposition Zrotation Xrotation Yrotation
                  JOINT LeftHandPinky3
                  {
                    OFFSET 0.000 0.000 0.000
                    CHANNELS 6 Xposition Yposition Zposition Zrotation Xrotation Yrotation
                    End Site
                    {
                      OFFSET 0.000 0.000 0.000
                    }
                  }
                }
              }
            }
          }
        }
      }
      JOINT RightShoulder
      {
        OFFSET -1.661 -0.416 0.134
        CHANNELS 6 Xposition Yposition Zposition Zrotation Xrotation Yrotation
        JOINT RightArm
        {
          OFFSET -15.436 0.000 0.000
          CHANNELS 6 Xposition Yposition Zposition Zrotation Xrotation Yrotation
          JOINT RightForeArm
          {
            OFFSET -25.556 0.000 0.000
            CHANNELS 6 Xposition Yposition Zposition Zrotation Xrotation Yrotation
            JOINT RightHand
            {
              OFFSET -22.496 0.000 0.000
              CHANNELS 6 Xposition Yposition Zposition Zrotation Xrotation Yrotation
              JOINT RightHandThumb1
              {
                OFFSET -0.000 0.000 0.000
                CHANNELS 6 Xposition Yposition Zposition Zrotation Xrotation Yrotation
                JOINT RightHandThumb2
                {
                  OFFSET -0.000 0.000 0.000
                  CHANNELS 6 Xposition Yposition Zposition Zrotation Xrotation Yrotation
                  JOINT RightHandThumb3
                  {
                    OFFSET -0.000 0.000 0.000
                    CHANNELS 6 Xposition Yposition Zposition Zrotation Xrotation Yrotation
                    End Site
                    {
                      OFFSET -0.000 0.000 0.000
                    }
                  }
                }
              }
              JOINT RightHandIndex1
              {
                OFFSET -0.000 0.000 0.000
                CHANNELS 6 Xposition Yposition Zposition Zrotation Xrotation Yrotation
                JOINT RightHandIndex2
                {
                  OFFSET -0.000 0.000 0.000
                  CHANNELS 6 Xposition Yposition Zposition Zrotation Xrotation Yrotation
                  JOINT RightHandIndex3
                  {
                    OFFSET -0.000 0.000 0.000
                    CHANNELS 6 Xposition Yposition Zposition Zrotation Xrotation Yrotation
                    End Site
                    {
                      OFFSET -0.000 0.000 0.000
                    }
                  }
                }
              }
              JOINT RightHandMiddle1
              {
                OFFSET -0.000 0.000 0.000
                CHANNELS 6 Xposition Yposition Zposition Zrotation Xrotation Yrotation
                JOINT RightHandMiddle2
                {
                  OFFSET -0.000 0.000 0.000
                  CHANNELS 6 Xposition Yposition Zposition Zrotation Xrotation Yrotation
                  JOINT RightHandMiddle3
                  {
                    OFFSET -0.000 0.000 0.000
                    CHANNELS 6 Xposition Yposition Zposition Zrotation Xrotation Yrotation
                    End Site
                    {
                      OFFSET -0.000 0.000 0.000
                    }
                  }
                }
              }
              JOINT RightHandRing1
              {
                OFFSET -0.000 0.000 0.000
                CHANNELS 6 Xposition Yposition Zposition Zrotation Xrotation Yrotation
                JOINT RightHandRing2
                {
                  OFFSET -0.000 0.000 0.000
                  CHANNELS 6 Xposition Yposition Zposition Zrotation Xrotation Yrotation
                  JOINT RightHandRing3
                  {
                    OFFSET -0.000 0.000 0.000
                    CHANNELS 6 Xposition Yposition Zposition Zrotation Xrotation Yrotation
                    End Site
                    {
                      OFFSET -0.000 0.000 0.000
                    }
                  }
                }
              }
              JOINT RightHandPinky1
              {
                OFFSET -0.000 0.000 0.000
                CHANNELS 6 Xposition Yposition Zposition Zrotation Xrotation Yrotation
                JOINT RightHandPinky2
                {
                  OFFSET -0.000 0.000 0.000
                  CHANNELS 6 Xposition Yposition Zposition Zrotation Xrotation Yrotation
                  JOINT RightHandPinky3
                  {
                    OFFSET -0.000 0.000 0.000
                    CHANNELS 6 Xposition Yposition Zposition Zrotation Xrotation Yrotation
                    End Site
                    {
                      OFFSET -0.000 0.000 0.000
                    }
                  }
                }
              }
            }
          }
        }
      }
      JOINT Neck
      {
        OFFSET 0.000 0.753 0.000
        CHANNELS 6 Xposition Yposition Zposition Zrotation Xrotation Yrotation
        JOINT Head
        {
          OFFSET 0.000 6.855 0.000
          CHANNELS 6 Xposition Yposition Zposition Zrotation Xrotation Yrotation
          End Site
          {
            OFFSET 0.000 16.008 0.000
          }
        }
      }
    }
  }
}
MOTION
Frames:	4
Frame Time:	0.033333
22.88672 67.02854 -220.06686 -28.58013 12.93579 25.19546 4.58165 0.53013 2.83911 24.13567 -48.19877 5.51956 0.00229 -32.52876 -0.00545 0.99626 45.16726 1.38542 0.00008 -30.12355 0.00806 0.22947 11.02544 -1.23089 -8.65362 1.96108 2.84275 -9.36803 -8.30154 -29.81454 0.00802 -36.33096 -0.00057 8.40380 3.88403 2.50112 0.03702 -33.52402 -0.01005 3.50167 33.83765 -6.41192 0.01289 32.80772 -0.00711 1.87949 1.64453 -1.60353 0.00095 24.18751 -0.00558 1.70263 2.06432 -1.69671 1.56543 -0.88970 0.14821 -29.29745 2.64740 -4.70671 16.26978 -0.00773 0.00600 -57.38381 -0.87112 -14.79765 22.65979 0.00379 -0.00683 -1.58217 5.73562 -21.08031 21.96620 0.00021 0.01447 -6.91819 15.41396 -15.11894 4.87700 -1.04399 3.60801 -24.66691 4.20731 -9.07848 2.66499 -0.00001 0.00000 -0.00000 0.00000 9.99861 2.54301 0.00000 -0.00002 0.00001 0.00000 15.00113 9.23200 -0.30100 2.14400 -19.99911 -0.00000 -0.00000 4.22500 -0.00001 0.00000 -24.99890 -0.00000 0.00000 2.65400 0.00000 0.00000 -29.90435 2.49625 -4.33155 8.92001 0.00000 0.00001 -20.00094 -0.00000 -0.00000 4.86299 -0.00002 -0.00002 -25.00101 -0.00000 0.00000 2.76499 -0.00000 0.00001 -29.90651 2.49814 -4.33183 8.68902 -0.12599 -2.08700 -20.00094 -0.00000 -0.00000 4.53800 -0.00002 -0.00002 -25.00101 -0.00000 0.00000 2.30501 0.00002 0.00001 -29.90651 2.49814 -4.33183 8.39101 -0.81699 -3.75800 -19.99911 -0.00000 -0.00000 3.04399 -0.00001 0.00001 -24.99890 -0.00000 0.00000 1.97500 0.00000 0.00000 -29.90435 2.49625 -4.33155 -1.33619 -0.43754 0.14377 17.80498 1.91977 5.98254 -12.79737 0.00455 0.00554 45.75988 1.43807 1.19322 -29.30453 -0.01317 -0.00051 18.66464 8.92993 36.25897 -22.09130 -0.16353 -0.20598 25.34381 9.26144 -8.75843 -4.87700 -1.04401 3.60799 37.43756 21.26577 8.20587 -2.66502 -0.00001 0.00000 -0.00000 -0.00000 -4.99465 -2.54300 0.00000 0.00000 0.00000 -0.00000 -59.99654 -9.23200 -0.30103 2.14401 79.99934 -0.00000 0.00001 -4.22500 0.00000 -0.00002 89.99927 0.00000 0.00001 -2.65399 -0.00002 0.00000 69.99942 -0.00001 0.00001 -8.91999 -0.00002 -0.00001 79.99538 -0.00000 0.00001 -4.86300 0.00001 0.00001 89.99480 0.00000 0.00001 -2.76500 0.00001 0.00000 69.99596 -0.00001 0.00001 -8.68900 -0.12602 -2.08699 79.99538 -0.00000 0.00001 -4.53798 0.00001 -0.00002 89.99480 0.00000 0.00001 -2.30502 0.00000 -0.00001 69.99596 -0.00001 0.00001 -8.39100 -0.81700 -3.75799 79.99934 -0.00000 0.00001 -3.04399 0.00000 0.00000 89.99927 0.00000 0.00001 -1.97499 0.00001 0.00005 69.99942 -0.00001 0.00001 -0.00004 0.79275 0.00000 -0.00007 0.00003 0.00001 -0.01829 7.15934 0.00221 -7.97139 6.97901 9.95500 
22.93769 67.05304 -220.11464 -28.32906 13.07326 24.68841 4.63879 0.60165 2.83956 23.90363 -48.09491 5.65150 0.00040 -32.54027 -0.00524 1.14876 45.17667 1.30205 0.00049 -30.21482 0.00797 0.23382 11.09423 -1.24204 -8.63507 1.91245 2.84307 -9.40304 -8.47296 -29.50032 0.00806 -36.43773 -0.00196 8.48422 3.99126 1.95410 0.03654 -33.33577 -0.01171 3.61199 33.78702 -6.56206 0.01303 32.76077 -0.00710 1.96383 1.64758 -1.58086 0.00039 24.14550 -0.00539 1.69521 2.11715 -1.69208 1.54810 -0.87055 0.15783 -28.94139 2.82112 -5.09054 16.07180 -0.01408 0.00589 -57.54814 -1.65642 -14.71623 22.66906 0.00818 -0.00719 -2.03535 5.90263 -21.02391 21.93901 -0.00337 0.01741 -9.37179 16.37238 -12.01132 4.87700 -1.04399 3.60801 -24.66689 4.20733 -9.07850 2.66499 -0.00001 0.00000 -0.00000 0.00000 9.99864 2.54301 0.00000 -0.00002 0.00001 0.00000 15.00111 9.23200 -0.30100 2.14400 -19.99913 -0.00000 -0.00000 4.22500 -0.00001 0.00000 -24.99892 -0.00000 0.00000 2.65400 0.00000 0.00000 -29.90437 2.49628 -4.33158 8.92001 0.00000 0.00001 -20.00092 -0.00000 -0.00000 4.86299 -0.00002 -0.00002 -25.00099 -0.00000 0.00000 2.76499 -0.00000 0.00001 -29.90649 2.49813 -4.33185 8.68902 -0.12599 -2.08700 -20.00092 -0.00000 -0.00000 4.53800 -0.00002 -0.00002 -25.00099 -0.00000 0.00000 2.30501 0.00002 0.00001 -29.90649 2.49813 -4.33185 8.39101 -0.81699 -3.75800 -19.99913 -0.00000 -0.00000 3.04399 -0.00001 0.00001 -24.99892 -0.00000 0.00000 1.97500 0.00000 0.00000 -29.90437 2.49628 -4.33158 -1.32334 -0.42644 0.15484 17.49680 2.02191 6.42458 -12.71611 0.00349 0.00341 46.12831 1.52141 0.92751 -29.38676 -0.01184 -0.00179 18.44898 8.72661 36.43584 -22.08348 -0.18758 -0.36757 20.41921 5.40172 -11.33896 -4.87700 -1.04401 3.60799 37.43758 21.26579 8.20591 -2.66502 -0.00001 0.00000 -0.00000 -0.00000 -4.99465 -2.54300 0.00000 0.00000 0.00000 -0.00000 -59.99654 -9.23200 -0.30103 2.14401 79.99938 -0.00000 0.00001 -4.22500 0.00000 -0.00002 89.99931 0.00000 0.00001 -2.65399 -0.00002 0.00000 69.99946 -0.00001 0.00001 -8.91999 -0.00002 -0.00001 79.99538 -0.00000 0.00001 -4.86300 0.00001 0.00001 89.99480 0.00000 0.00001 -2.76500 0.00001 0.00000 69.99596 -0.00001 0.00001 -8.68900 -0.12602 -2.08699 79.99538 -0.00000 0.00001 -4.53798 0.00001 -0.00002 89.99480 0.00000 0.00001 -2.30502 0.00000 -0.00001 69.99596 -0.00001 0.00001 -8.39100 -0.81700 -3.75799 79.99938 -0.00000 0.00001 -3.04399 0.00000 0.00000 89.99931 0.00000 0.00001 -1.97499 0.00001 0.00005 69.99946 -0.00001 0.00001 -0.00004 0.79282 0.00000 -0.00007 0.00003 0.00001 -0.02470 7.14699 0.00176 -6.12273 7.55305 9.03771 
22.95306 67.11787 -220.19893 -28.04730 13.25443 23.80879 4.70621 0.66482 2.83916 23.91605 -47.81891 6.17799 -0.00158 -32.54977 -0.00505 1.46144 45.07644 1.19795 0.00093 -30.32838 0.00789 0.22159 10.95504 -1.17487 -8.59988 1.85499 2.84305 -9.37297 -8.82446 -28.82679 0.00940 -36.59525 -0.00283 8.39139 4.09901 1.45640 0.03129 -33.07334 -0.01351 3.60628 34.08696 -6.45881 0.01314 32.69742 -0.00710 1.96941 1.69057 -1.41938 -0.00228 24.09724 -0.00526 1.65369 2.17237 -1.53888 1.52129 -0.84356 0.16817 -28.46068 3.01942 -5.56408 15.77133 -0.02420 0.00579 -57.54956 -2.43410 -14.62780 22.75651 0.01171 -0.00748 -3.00866 5.94228 -21.23478 22.40611 -0.02776 0.02747 -10.31940 17.10519 -8.27972 4.87700 -1.04399 3.60801 -24.66686 4.20736 -9.07852 2.66499 -0.00001 0.00000 -0.00000 0.00000 9.99867 2.54301 0.00000 -0.00002 0.00001 0.00000 15.00108 9.23200 -0.30100 2.14400 -19.99914 -0.00000 -0.00000 4.22500 -0.00001 0.00000 -24.99895 -0.00000 0.00000 2.65400 0.00000 0.00000 -29.90440 2.49631 -4.33160 8.92001 0.00000 0.00001 -20.00090 -0.00000 -0.00000 4.86299 -0.00002 -0.00002 -25.00097 -0.00000 0.00000 2.76499 -0.00000 0.00001 -29.90647 2.49812 -4.33187 8.68902 -0.12599 -2.08700 -20.00090 -0.00000 -0.00000 4.53800 -0.00002 -0.00002 -25.00097 -0.00000 0.00000 2.30501 0.00002 0.00001 -29.90647 2.49812 -4.33187 8.39101 -0.81699 -3.75800 -19.99914 -0.00000 -0.00000 3.04399 -0.00001 0.00001 -24.99895 -0.00000 0.00000 1.97500 0.00000 0.00000 -29.90440 2.49631 -4.33160 -1.30989 -0.41731 0.16701 17.25886 2.14135 6.90991 -12.64425 0.00241 0.00145 46.51990 1.61767 0.60228 -29.43641 -0.01041 -0.00510 18.04721 8.48630 36.71059 -22.02182 -0.14122 -0.29332 16.30574 2.97381 -12.92631 -4.87700 -1.04401 3.60799 37.43760 21.26582 8.20594 -2.66502 -0.00001 0.00000 -0.00000 -0.00000 -4.99465 -2.54300 0.00000 0.00000 0.00000 -0.00000 -59.99654 -9.23200 -0.30103 2.14401 79.99942 -0.00000 0.00001 -4.22500 0.00000 -0.00002 89.99934 0.00000 0.00001 -2.65399 -0.00002 0.00000 69.99948 -0.00001 0.00001 -8.91999 -0.00002 -0.00001 79.99538 -0.00000 0.00001 -4.86300 0.00001 0.00001 89.99480 0.00000 0.00001 -2.76500 0.00001 0.00000 69.99596 -0.00001 0.00001 -8.68900 -0.12602 -2.08699 79.99538 -0.00000 0.00001 -4.53798 0.00001 -0.00002 89.99480 0.00000 0.00001 -2.30502 0.00000 -0.00001 69.99596 -0.00001 0.00001 -8.39100 -0.81700 -3.75799 79.99942 -0.00000 0.00001 -3.04399 0.00000 0.00000 89.99934 0.00000 0.00001 -1.97499 0.00001 0.00005 69.99948 -0.00001 0.00001 -0.00004 0.79290 0.00000 -0.00007 0.00003 0.00001 -0.03080 7.13341 0.00131 -3.96820 7.94842 8.30095 
22.95526 67.16955 -220.27020 -27.61409 13.48232 22.98807 4.75815 0.69863 2.83938 23.75789 -47.69443 6.52954 -0.00359 -32.56634 -0.00487 1.66239 45.19061 1.22534 0.00140 -30.45234 0.00783 0.16832 11.05385 -0.86588 -8.55623 1.83432 2.84604 -9.41787 -8.92744 -28.44603 0.01350 -37.01700 -0.01279 8.32672 3.93563 0.96648 0.02230 -32.53998 -0.01786 4.69613 34.41340 -8.24307 0.01323 32.59951 -0.01018 2.08553 1.78925 -1.37718 -0.00558 24.01395 -0.00825 1.64923 2.23801 -1.47842 1.49947 -0.80828 0.17393 -27.59762 3.05082 -5.84755 15.48413 -0.04088 0.00570 -58.46625 -3.18342 -14.65845 22.50310 0.01293 -0.00770 -3.38897 5.94010 -20.96547 22.85856 -0.03235 0.02240 -10.84490 17.51006 -6.07778 4.87700 -1.04399 3.60801 -24.66684 4.20739 -9.07854 2.66499 -0.00001 0.00000 -0.00000 0.00000 9.99870 2.54301 0.00000 -0.00002 0.00001 0.00000 15.00106 9.23200 -0.30100 2.14400 -19.99917 -0.00000 -0.00000 4.22500 -0.00001 0.00000 -24.99897 -0.00000 0.00000 2.65400 0.00000 0.00000 -29.90442 2.49634 -4.33163 8.92001 0.00000 0.00001 -20.00088 -0.00000 -0.00000 4.86299 -0.00002 -0.00002 -25.00095 -0.00000 0.00000 2.76499 -0.00000 0.00001 -29.90644 2.49810 -4.33189 8.68902 -0.12599 -2.08700 -20.00088 -0.00000 -0.00000 4.53800 -0.00002 -0.00002 -25.00095 -0.00000 0.00000 2.30501 0.00002 0.00001 -29.90644 2.49810 -4.33189 8.39101 -0.81699 -3.75800 -19.99917 -0.00000 -0.00000 3.04399 -0.00001 0.00001 -24.99897 -0.00000 0.00000 1.97500 0.00000 0.00000 -29.90442 2.49634 -4.33163 -1.29934 -0.40343 0.17216 16.82257 2.15414 7.14288 -12.62300 0.00132 0.00066 47.01427 2.44077 0.62169 -29.46657 -0.00894 -0.01260 17.43262 8.06963 36.14093 -22.50409 -0.10668 -0.27495 12.84156 2.05277 -7.84789 -4.87700 -1.04401 3.60799 37.43763 21.26584 8.20598 -2.66502 -0.00001 0.00000 -0.00000 -0.00000 -4.99465 -2.54300 0.00000 0.00000 0.00000 -0.00000 -59.99654 -9.23200 -0.30103 2.14401 79.99944 -0.00000 0.00001 -4.22500 0.00000 -0.00002 89.99938 0.00000 0.00001 -2.65399 -0.00002 0.00000 69.99951 -0.00001 0.00001 -8.91999 -0.00002 -0.00001 79.99538 -0.00000 0.00001 -4.86300 0.00001 0.00001 89.99480 0.00000 0.00001 -2.76500 0.00001 0.00000 69.99596 -0.00001 0.00001 -8.68900 -0.12602 -2.08699 79.99538 -0.00000 0.00001 -4.53798 0.00001 -0.00002 89.99480 0.00000 0.00001 -2.30502 0.00000 -0.00001 69.99596 -0.00001 0.00001 -8.39100 -0.81700 -3.75799 79.99944 -0.00000 0.00001 -3.04399 0.00000 0.00000 89.99938 0.00000 0.00001 -1.97499 0.00001 0.00005 69.99951 -0.00001 0.00001 -0.00004 0.79068 0.00000 -0.00007 0.00003 0.00001 -0.04017 7.10906 0.00134 -2.65768 7.78403 7.41174 
